<?xml version="1.0" encoding="UTF-8" standalone="no"?>
<svg xmlns:dc="http://purl.org/dc/elements/1.1/" xmlns:cc="http://creativecommons.org/ns#" xmlns:rdf="http://www.w3.org/1999/02/22-rdf-syntax-ns#" xmlns:svg="http://www.w3.org/2000/svg" xmlns="http://www.w3.org/2000/svg" version="1.1" width="64" height="64" id="svg2">
  <metadata id="metadata8">
    <rdf:RDF>
      <cc:Work rdf:about="">
        <dc:format>image/svg+xml</dc:format>
        <dc:type rdf:resource="http://purl.org/dc/dcmitype/StillImage"/>
        <dc:title/>
      </cc:Work>
    </rdf:RDF>
  </metadata>
  <defs id="defs6"/>
  <defs>
    <mask id="awesome-icon-mask">
      <circle cx="32" cy="32" r="26" fill="white" />
      <circle cx="53.2132" cy="10.7868" r="10" fill="black" />
    </mask>
  </defs>

  <g style="fill:#535d6c">
    <path d="m 0,64 0,-42 44,0 0,-2 -44,0 0,-20 64,0 0,64 -20,0 0,-22 -24,0 0,2 22,0 0,20 z" id="path10" mask="url(#awesome-icon-mask)"/>
    <path d="M 64 32 A 32 32 0 1 0 0 32 A 32 32 0 1 0 64 32
             M 60 32 A 28 28 0 1 1 4 32 A 28 28 0 1 1 60 32
             Z" />
    <circle cx="53.2132" cy="10.7868" r="8" />
  </g>
</svg>
